<?xml version="1.0" encoding="iso-8859-1"?>
<!-- Generator: Adobe Illustrator 19.0.0, SVG Export Plug-In . SVG Version: 6.00 Build 0)  -->
<svg version="1.1" id="Layer_1" xmlns="http://www.w3.org/2000/svg" xmlns:xlink="http://www.w3.org/1999/xlink" x="0px" y="0px"
	 viewBox="0 0 392.533 392.533" style="enable-background:new 0 0 392.533 392.533;" xml:space="preserve">
<g>
	<g>
		<path d="M360.986,0H31.547C14.158,0,0,14.158,0,31.547v329.568c0,17.325,14.158,31.418,31.547,31.418h205.576
			c4.202,0,8.21-0.776,12.024-2.392l123.927-51.2c3.685-1.552,19.459-8.469,19.459-29.156V31.547
			C392.533,14.158,378.376,0,360.986,0z M252.057,365.317v-30.901h74.667L252.057,365.317z M370.295,312.63H241.131
			c-6.012,0-10.925,4.848-10.925,10.925v47.192H31.547c-5.301,0-9.632-4.331-9.632-9.632V31.547c0-5.301,4.331-9.632,9.632-9.632
			h329.568c5.301,0,9.632,4.331,9.632,9.632C370.747,31.547,370.618,311.725,370.295,312.63z"/>
	</g>
</g>
<g>
	<g>
		<path d="M340.428,155.927H52.105c-6.012,0-10.925,4.849-10.925,10.925c0,6.012,4.848,10.925,10.925,10.925h288.323
			c6.012,0,10.925-4.849,10.925-10.925C351.354,160.776,346.505,155.927,340.428,155.927z"/>
	</g>
</g>
<g>
	<g>
		<path d="M340.428,212.234H52.105c-6.012,0-10.925,4.848-10.925,10.925c0,6.012,4.848,10.925,10.925,10.925h288.323
			c6.012,0,10.925-4.848,10.925-10.925S346.505,212.234,340.428,212.234z"/>
	</g>
</g>
<g>
	<g>
		<path d="M340.428,268.541H52.105c-6.012,0-10.925,4.849-10.925,10.925c0,6.012,4.848,10.925,10.925,10.925h288.323
			c6.012,0,10.925-4.849,10.925-10.925C351.354,273.455,346.505,268.541,340.428,268.541z"/>
	</g>
</g>
<g>
	<g>
		<path d="M196.267,324.849H52.105c-6.012,0-10.925,4.848-10.925,10.925c0,6.012,4.848,10.925,10.925,10.925h144.162
			c6.012,0,10.925-4.849,10.925-10.925S202.279,324.849,196.267,324.849z"/>
	</g>
</g>
<g>
	<g>
		<path d="M311.467,81.261c-6.788,0-12.347-3.943-12.347-8.727s5.56-8.727,12.347-8.727c3.491,0,6.659,1.034,9.051,2.715
			c3.103,2.327,8.339,2.457,11.636,0.259c3.297-2.133,3.491-5.883,0.388-8.21c-5.43-4.073-13.123-6.4-21.01-6.4
			c-15.903,0-28.897,9.115-28.897,20.299s12.994,20.299,28.897,20.299c6.788,0,12.347,3.943,12.347,8.727s-5.56,8.727-12.347,8.727
			c-3.491,0-6.659-1.034-9.051-2.715c-3.103-2.327-8.339-2.457-11.636-0.259c-3.297,2.133-3.491,5.883-0.388,8.21
			c5.43,4.073,13.123,6.4,21.01,6.4c15.903,0,28.897-9.115,28.897-20.299S327.37,81.261,311.467,81.261z"/>
	</g>
</g>
<g>
	<g>
		<path d="M168.275,92.832c4.59,0,8.275-2.651,8.275-5.818c0-3.232-3.685-5.818-8.275-5.818h-24.242V63.741h24.242
			c4.59,0,8.275-2.651,8.275-5.818s-3.685-5.818-8.275-5.818h-32.517c-4.59,0-8.275,2.651-8.275,5.818v58.117
			c0,3.168,3.75,5.818,8.275,5.818h32.517c4.59,0,8.275-2.651,8.275-5.818c0-3.232-3.685-5.818-8.275-5.818h-24.242v-17.39H168.275z
			"/>
	</g>
</g>
<g>
	<g>
		<path d="M109.834,51.976c-4.59,0-8.275,2.651-8.275,5.818v37.107L67.426,54.885c-1.939-2.263-5.689-3.297-9.244-2.651
			c-3.556,0.711-6.012,3.038-6.012,5.624v58.117c-0.065,3.232,3.62,5.883,8.145,5.883c4.59,0,8.275-2.651,8.275-5.818V78.933
			l34.133,40.016c1.552,1.745,4.267,2.844,7.111,2.844c0.711,0,1.487-0.065,2.263-0.259c3.556-0.711,6.012-3.038,6.012-5.624V57.794
			C118.109,54.562,114.424,51.976,109.834,51.976z"/>
	</g>
</g>
<g>
	<g>
		<path d="M279.143,52.299c-4.396-0.84-8.986,1.034-10.149,4.073l-14.028,37.107l-14.093-37.107
			c-1.745-3.879-4.073-3.814-5.883-4.073c-4.396-0.84-8.986,1.034-10.149,4.073l-13.964,37.107l-14.093-37.107
			c-1.164-3.103-5.689-4.978-10.15-4.073c-4.396,0.84-7.046,4.008-5.883,7.111l22.174,58.117c1.034,2.521,4.267,4.331,7.952,4.331
			c3.685,0,7.046-1.745,7.951-4.331l14.093-37.107l14.093,37.107c0.905,2.521,4.267,4.331,7.952,4.331
			c3.685,0,7.046-1.745,7.951-4.331l22.109-58.117C286.19,56.307,283.539,53.139,279.143,52.299z"/>
	</g>
</g>
<g>
</g>
<g>
</g>
<g>
</g>
<g>
</g>
<g>
</g>
<g>
</g>
<g>
</g>
<g>
</g>
<g>
</g>
<g>
</g>
<g>
</g>
<g>
</g>
<g>
</g>
<g>
</g>
<g>
</g>
</svg>
